STARTFONT 2.1
COMMENT $XConsortium: luIS24.bdf,v 1.7 94/04/02 15:59:58 gildea Exp $
COMMENT  (c) Copyright Bigelow & Holmes 1986, 1985. Lucida is a registered
COMMENT  trademark of Bigelow & Holmes. See LEGAL NOTICE file for terms 
COMMENT  of the license. 
FONT -RFX-Serene-Medium-I-Normal-Sans-24-240-75-75-P-136-windows-1251
SIZE 24 72 72
FONTBOUNDINGBOX 46 27 -15 -5
STARTPROPERTIES 24
FONTNAME_REGISTRY ""
FOUNDRY "RFX"
FAMILY_NAME "Serene"
WEIGHT_NAME "Medium"
SLANT "I"
SETWIDTH_NAME "Normal"
ADD_STYLE_NAME "Sans"
PIXEL_SIZE 24
POINT_SIZE 240
RESOLUTION_X 75
RESOLUTION_Y 75
SPACING "P"
AVERAGE_WIDTH 136
CHARSET_REGISTRY "windows"
CHARSET_ENCODING "1251"
FONT_ASCENT 22
FONT_DESCENT 5
DEFAULT_CHAR 32
COPYRIGHT "Copyright Bigelow & Holmes 1986, 1985."
FACE_NAME "Lucida Sans Italic"
COPYRIGHT2 "Cyrillic and Euro glyphs copyright 2000 Dmitry Yu. Bolkhovityanov, bolkhov@inp.nsk.su"
SOURCEDATE "Tue Aug  1 13:41:58 2000"
PKGVERSION "1.1"
ASSEMBLER "cvtbdf.pl (Linux)"
ENDPROPERTIES
CHARS 244
STARTCHAR space
ENCODING 32
SWIDTH 316 0
DWIDTH 8 0
BBX 0 0 0 0
BITMAP
ENDCHAR
STARTCHAR exclam
ENCODING 33
SWIDTH 193 0
DWIDTH 8 0
BBX 6 17 3 0
BITMAP
0C
1C
18
18
18
18
38
30
30
30
30
60
00
00
00
E0
C0
ENDCHAR
STARTCHAR quotedbl
ENCODING 34
SWIDTH 361 0
DWIDTH 9 0
BBX 6 6 4 11
BITMAP
CC
CC
CC
CC
CC
CC
ENDCHAR
STARTCHAR numbersign
ENCODING 35
SWIDTH 633 0
DWIDTH 15 0
BBX 15 17 2 0
BITMAP
00C6
008C
018C
0118
0318
7FFE
7FFE
0620
0460
0C40
08C0
FFFC
FFFC
3180
2300
6700
C600
ENDCHAR
STARTCHAR dollar
ENCODING 36
SWIDTH 633 0
DWIDTH 15 0
BBX 12 21 3 -2
BITMAP
0100
0100
03F0
0FF0
1F80
3900
3300
3200
1A00
1E00
0600
0700
0580
04C0
0CC0
08C0
0980
FF80
FE00
1800
1800
ENDCHAR
STARTCHAR percent
ENCODING 37
SWIDTH 741 0
DWIDTH 18 0
BBX 17 17 2 0
BITMAP
0F0180
1F8300
398600
318C00
219800
333000
3F6000
1E4000
00DC00
01BE00
036300
066300
0CC300
18C600
30E600
607C00
C03800
ENDCHAR
STARTCHAR ampersand
ENCODING 38
SWIDTH 701 0
DWIDTH 17 0
BBX 15 17 2 0
BITMAP
01E0
03F0
0738
0618
0E30
0670
07E0
1F80
3B0E
738E
E18C
C1DC
C0D8
E0F0
F0F0
7FB0
1F38
ENDCHAR
STARTCHAR quotesingle
ENCODING 39
SWIDTH 217 0
DWIDTH 5 0
BBX 3 5 4 12
BITMAP
E0
E0
E0
C0
40
ENDCHAR
STARTCHAR parenleft
ENCODING 40
SWIDTH 325 0
DWIDTH 8 0
BBX 8 21 2 -4
BITMAP
01
03
06
0C
18
30
30
70
60
60
E0
C0
C0
C0
C0
C0
C0
60
60
30
10
ENDCHAR
STARTCHAR parenright
ENCODING 41
SWIDTH 325 0
DWIDTH 8 0
BBX 8 21 1 -4
BITMAP
08
0C
06
06
03
03
03
03
03
03
07
06
06
0E
0C
1C
18
30
60
C0
80
ENDCHAR
STARTCHAR asterisk
ENCODING 42
SWIDTH 470 0
DWIDTH 11 0
BBX 9 9 4 8
BITMAP
0C00
0C00
4800
EB80
3700
1800
2400
E600
4400
ENDCHAR
STARTCHAR plus
ENCODING 43
SWIDTH 633 0
DWIDTH 15 0
BBX 14 14 2 0
BITMAP
0180
0180
0180
0180
0300
0300
FFFC
FFFC
0300
0300
0600
0600
0600
0600
ENDCHAR
STARTCHAR comma
ENCODING 44
SWIDTH 316 0
DWIDTH 8 0
BBX 4 9 2 -5
BITMAP
70
70
70
70
20
20
60
40
C0
ENDCHAR
STARTCHAR minus
ENCODING 45
SWIDTH 633 0
DWIDTH 15 0
BBX 14 2 2 7
BITMAP
FFFC
FFFC
ENDCHAR
STARTCHAR period
ENCODING 46
SWIDTH 316 0
DWIDTH 8 0
BBX 3 2 3 0
BITMAP
E0
E0
ENDCHAR
STARTCHAR slash
ENCODING 47
SWIDTH 482 0
DWIDTH 12 0
BBX 16 21 0 -4
BITMAP
0003
0006
000C
000C
0018
0030
0030
0060
00C0
00C0
0180
0300
0300
0600
0C00
0C00
1800
3000
3000
6000
C000
ENDCHAR
STARTCHAR zero
ENCODING 48
SWIDTH 633 0
DWIDTH 15 0
BBX 13 17 3 0
BITMAP
03C0
0FF0
1C70
3838
3018
7038
6038
6038
E038
C030
C030
C070
C060
E0C0
61C0
7F80
1E00
ENDCHAR
STARTCHAR one
ENCODING 49
SWIDTH 633 0
DWIDTH 15 0
BBX 6 17 6 0
BITMAP
7C
FC
18
18
18
38
38
30
30
30
70
70
60
60
60
E0
C0
ENDCHAR
STARTCHAR two
ENCODING 50
SWIDTH 633 0
DWIDTH 15 0
BBX 13 17 2 0
BITMAP
07E0
1FF0
1038
0038
0018
0038
0030
0060
00C0
0380
0700
0C00
3800
3000
6000
FFE0
FFC0
ENDCHAR
STARTCHAR three
ENCODING 51
SWIDTH 633 0
DWIDTH 15 0
BBX 12 17 3 0
BITMAP
0FC0
1FE0
1070
0030
0030
0060
01C0
1F80
1FC0
01E0
00E0
0060
00E0
00C0
C1C0
FF80
7E00
ENDCHAR
STARTCHAR four
ENCODING 52
SWIDTH 633 0
DWIDTH 15 0
BBX 13 17 2 0
BITMAP
0038
0078
00F0
01B0
03B0
0730
0E70
1C60
1860
3060
6060
FFF8
FFF8
00C0
00C0
01C0
0180
ENDCHAR
STARTCHAR five
ENCODING 53
SWIDTH 633 0
DWIDTH 15 0
BBX 13 17 3 0
BITMAP
0FF8
1FF8
1800
1800
1800
1000
3F00
3FC0
01C0
00E0
00E0
00E0
00E0
00C0
C380
FF00
FE00
ENDCHAR
STARTCHAR six
ENCODING 54
SWIDTH 633 0
DWIDTH 15 0
BBX 13 17 3 0
BITMAP
03F0
07F8
0E18
1800
3000
7000
6FC0
7FE0
F0F0
E070
E070
C070
C060
E0E0
71C0
7F80
1E00
ENDCHAR
STARTCHAR seven
ENCODING 55
SWIDTH 633 0
DWIDTH 15 0
BBX 13 17 4 0
BITMAP
3FF8
3FF8
0078
0070
00E0
01C0
0380
0700
0E00
1C00
1C00
3800
3000
7000
6000
E000
E000
ENDCHAR
STARTCHAR eight
ENCODING 56
SWIDTH 633 0
DWIDTH 15 0
BBX 12 17 3 0
BITMAP
03C0
0FF0
1C30
1830
3830
3870
1DE0
0F80
1F80
39C0
60E0
E060
C060
C0E0
E1C0
7F80
3F00
ENDCHAR
STARTCHAR nine
ENCODING 57
SWIDTH 633 0
DWIDTH 15 0
BBX 13 17 2 0
BITMAP
03C0
0FF0
1C70
3838
3018
7018
7038
7038
7878
3FF0
1FB0
0070
0060
00C0
C380
FF00
7C00
ENDCHAR
STARTCHAR colon
ENCODING 58
SWIDTH 316 0
DWIDTH 8 0
BBX 5 13 3 0
BITMAP
38
38
00
00
00
00
00
00
00
00
00
E0
C0
ENDCHAR
STARTCHAR semicolon
ENCODING 59
SWIDTH 316 0
DWIDTH 8 0
BBX 6 18 2 -5
BITMAP
0C
1C
00
00
00
00
00
00
00
00
00
70
60
20
60
60
C0
80
ENDCHAR
STARTCHAR less
ENCODING 60
SWIDTH 633 0
DWIDTH 15 0
BBX 15 14 2 0
BITMAP
0002
000E
003C
01F0
0780
1E00
F800
7800
3C00
0F00
03C0
00F0
0078
0010
ENDCHAR
STARTCHAR equal
ENCODING 61
SWIDTH 633 0
DWIDTH 15 0
BBX 15 7 1 3
BITMAP
7FFE
7FFE
0000
0000
0000
FFFC
FFFC
ENDCHAR
STARTCHAR greater
ENCODING 62
SWIDTH 633 0
DWIDTH 15 0
BBX 15 14 1 0
BITMAP
1000
3C00
1E00
0780
01E0
0078
003C
003E
00F0
03C0
1F00
7800
E000
8000
ENDCHAR
STARTCHAR question
ENCODING 63
SWIDTH 464 0
DWIDTH 11 0
BBX 10 17 3 0
BITMAP
3F00
7F80
C380
01C0
0180
0380
0700
0E00
1C00
3800
3000
7000
6000
0000
0000
E000
C000
ENDCHAR
STARTCHAR at
ENCODING 64
SWIDTH 858 0
DWIDTH 21 0
BBX 18 17 3 0
BITMAP
00FC00
07FF00
0F0380
1801C0
30FCC0
61F840
430840
C61840
841840
8C30C0
8CD180
CFBF00
C71E00
600000
382000
1FF000
07C000
ENDCHAR
STARTCHAR A
ENCODING 65
SWIDTH 687 0
DWIDTH 16 0
BBX 16 17 0 0
BITMAP
0038
0078
0078
00D8
01DC
019C
039C
030C
060C
060E
0C0E
1FFE
1FFE
3006
3007
6007
E007
ENDCHAR
STARTCHAR B
ENCODING 66
SWIDTH 593 0
DWIDTH 14 0
BBX 13 17 2 0
BITMAP
1FE0
1FF0
1838
1838
3830
3870
30E0
3FC0
3F80
71E0
7060
7070
6070
6070
E1E0
FFC0
FF80
ENDCHAR
STARTCHAR C
ENCODING 67
SWIDTH 679 0
DWIDTH 16 0
BBX 16 17 3 0
BITMAP
01FE
07FF
0F03
1C00
3800
7000
7000
6000
E000
E000
E000
E000
E000
E000
7818
3FF8
0FE0
ENDCHAR
STARTCHAR D
ENCODING 68
SWIDTH 743 0
DWIDTH 18 0
BBX 17 17 2 0
BITMAP
1FFC00
1FFE00
1C0F00
180780
180380
380380
380380
300380
300380
300300
700700
700600
600E00
601C00
607800
FFF000
FFC000
ENDCHAR
STARTCHAR E
ENCODING 69
SWIDTH 547 0
DWIDTH 13 0
BBX 13 17 2 0
BITMAP
1FF8
1FF8
1800
1800
3800
3800
3000
3FC0
3FC0
7000
7000
7000
6000
6000
E000
FFC0
FFC0
ENDCHAR
STARTCHAR F
ENCODING 70
SWIDTH 536 0
DWIDTH 13 0
BBX 13 17 2 0
BITMAP
1FF8
1FF8
1800
1800
3800
3800
3800
3000
3FC0
7FC0
7000
7000
6000
6000
E000
E000
E000
ENDCHAR
STARTCHAR G
ENCODING 71
SWIDTH 702 0
DWIDTH 17 0
BBX 16 17 3 0
BITMAP
01FE
07FF
0F03
1C00
3800
7000
7000
6000
E000
E00C
E00C
E01C
E01C
F01C
7838
3FF8
0FC0
ENDCHAR
STARTCHAR H
ENCODING 72
SWIDTH 735 0
DWIDTH 18 0
BBX 17 17 2 0
BITMAP
1C0380
1C0380
180300
180300
180300
380700
380700
3FFE00
3FFE00
300600
700E00
700E00
600C00
600C00
600C00
E01C00
E01C00
ENDCHAR
STARTCHAR I
ENCODING 73
SWIDTH 289 0
DWIDTH 7 0
BBX 6 17 2 0
BITMAP
1C
1C
18
18
18
38
38
30
30
30
70
70
60
60
60
E0
E0
ENDCHAR
STARTCHAR J
ENCODING 74
SWIDTH 408 0
DWIDTH 10 0
BBX 12 21 0 -4
BITMAP
0070
0070
0060
0060
0060
00E0
00E0
00C0
00C0
00C0
01C0
01C0
0180
0180
0180
0380
0300
0300
8700
FE00
F800
ENDCHAR
STARTCHAR K
ENCODING 75
SWIDTH 635 0
DWIDTH 15 0
BBX 15 17 2 0
BITMAP
1C0E
1C1C
1838
1870
18E0
39C0
3B80
3700
3E00
3700
7300
7180
61C0
60C0
6060
E070
E038
ENDCHAR
STARTCHAR L
ENCODING 76
SWIDTH 545 0
DWIDTH 13 0
BBX 11 17 2 0
BITMAP
1C00
1C00
1800
1800
1800
3800
3800
3000
3000
3000
7000
7000
6000
6000
6000
FFE0
FFE0
ENDCHAR
STARTCHAR M
ENCODING 77
SWIDTH 828 0
DWIDTH 20 0
BBX 19 17 2 0
BITMAP
1E01E0
1E01E0
1E03C0
1E03C0
1F06C0
3706C0
330DC0
331D80
331980
333180
633180
63E380
63E300
61C300
61C300
C00300
C00700
ENDCHAR
STARTCHAR N
ENCODING 78
SWIDTH 741 0
DWIDTH 18 0
BBX 17 17 2 0
BITMAP
1C0180
1E0180
1E0300
1F0300
1F0300
3B0300
338300
318600
31C600
30C600
60E600
606E00
607C00
607C00
603C00
C03C00
C01C00
ENDCHAR
STARTCHAR O
ENCODING 79
SWIDTH 777 0
DWIDTH 19 0
BBX 17 17 3 0
BITMAP
01F800
07FE00
0F0F00
1C0700
380380
700380
700380
600380
E00380
E00300
E00700
E00600
E00E00
F01C00
787800
3FF000
0F8000
ENDCHAR
STARTCHAR P
ENCODING 80
SWIDTH 575 0
DWIDTH 14 0
BBX 13 17 2 0
BITMAP
1FE0
1FF8
1838
1838
3838
3838
3070
30E0
3FC0
7F00
7000
6000
6000
6000
E000
E000
E000
ENDCHAR
STARTCHAR Q
ENCODING 81
SWIDTH 777 0
DWIDTH 19 0
BBX 17 22 3 -5
BITMAP
01F800
07FE00
0F0F00
1C0700
380380
700380
700380
600380
E00380
E00300
E00700
E00700
E00E00
F01C00
787800
3FF000
0FC000
007000
003C00
001F80
000F00
000600
ENDCHAR
STARTCHAR R
ENCODING 82
SWIDTH 632 0
DWIDTH 15 0
BBX 13 17 2 0
BITMAP
1FF0
1FF8
1838
1838
3838
3830
3870
30E0
3F80
7F80
7180
71C0
60C0
60E0
E060
E070
E030
ENDCHAR
STARTCHAR S
ENCODING 83
SWIDTH 553 0
DWIDTH 13 0
BBX 13 17 2 0
BITMAP
03F0
0FF8
1E08
1C00
1800
1C00
1E00
0F00
0780
01C0
00E0
0060
0060
00E0
C1E0
FFC0
7F00
ENDCHAR
STARTCHAR T
ENCODING 84
SWIDTH 623 0
DWIDTH 15 0
BBX 15 17 3 0
BITMAP
FFFE
FFFE
0300
0300
0300
0700
0700
0600
0600
0600
0E00
0E00
0C00
0C00
0C00
1C00
1C00
ENDCHAR
STARTCHAR U
ENCODING 85
SWIDTH 693 0
DWIDTH 17 0
BBX 15 17 3 0
BITMAP
3806
3806
300C
300C
700C
700C
701C
6018
6018
E018
E018
E038
E030
E070
F0E0
7FC0
3F80
ENDCHAR
STARTCHAR V
ENCODING 86
SWIDTH 687 0
DWIDTH 16 0
BBX 16 17 4 0
BITMAP
E007
E006
E00E
601C
6018
7038
7030
7070
30E0
30C0
39C0
3980
3B80
1F00
1E00
1E00
1C00
ENDCHAR
STARTCHAR W
ENCODING 87
SWIDTH 886 0
DWIDTH 21 0
BBX 20 17 4 0
BITMAP
C06030
C0E070
C0F060
C0F0E0
E1F0C0
E1F1C0
E37180
E37180
E67300
667300
6C7600
6C7600
787C00
783C00
783800
703800
703000
ENDCHAR
STARTCHAR X
ENCODING 88
SWIDTH 620 0
DWIDTH 15 0
BBX 17 17 0 0
BITMAP
0E0380
0E0700
070E00
071C00
031800
03B000
01E000
01E000
01C000
03E000
036000
067000
0C7000
1C3800
383800
701C00
E01C00
ENDCHAR
STARTCHAR Y
ENCODING 89
SWIDTH 608 0
DWIDTH 15 0
BBX 14 17 4 0
BITMAP
E01C
6038
7070
3060
38C0
39C0
1B80
1F00
0E00
0C00
0C00
0C00
1C00
1C00
1800
1800
3800
ENDCHAR
STARTCHAR Z
ENCODING 90
SWIDTH 578 0
DWIDTH 14 0
BBX 16 17 0 0
BITMAP
0FFF
0FFF
000E
001C
0038
0070
00E0
01C0
03C0
0780
0700
0E00
1C00
3800
7000
FFF8
FFF8
ENDCHAR
STARTCHAR bracketleft
ENCODING 91
SWIDTH 325 0
DWIDTH 8 0
BBX 9 21 1 -4
BITMAP
0F80
0F80
0C00
0C00
1C00
1800
1800
1800
1800
3000
3000
3000
3000
3000
6000
6000
6000
6000
4000
F800
F800
ENDCHAR
STARTCHAR backslash
ENCODING 92
SWIDTH 482 0
DWIDTH 12 0
BBX 7 21 4 -4
BITMAP
C0
C0
40
60
60
60
20
30
30
30
10
18
18
18
08
0C
0C
0C
04
06
06
ENDCHAR
STARTCHAR bracketright
ENCODING 93
SWIDTH 325 0
DWIDTH 8 0
BBX 9 21 0 -4
BITMAP
0F80
0F80
0100
0300
0300
0300
0300
0600
0600
0600
0600
0600
0C00
0C00
0C00
0C00
1C00
1800
1800
F800
F800
ENDCHAR
STARTCHAR asciicircum
ENCODING 94
SWIDTH 633 0
DWIDTH 15 0
BBX 14 14 1 3
BITMAP
0040
0040
00E0
01E0
03E0
0320
0630
0E30
0C10
1818
3818
3018
600C
E00C
ENDCHAR
STARTCHAR underscore
ENCODING 95
SWIDTH 500 0
DWIDTH 12 0
BBX 10 2 1 -3
BITMAP
FFC0
FFC0
ENDCHAR
STARTCHAR grave
ENCODING 96
SWIDTH 572 0
DWIDTH 14 0
BBX 4 3 8 14
BITMAP
E0
60
30
ENDCHAR
STARTCHAR a
ENCODING 97
SWIDTH 608 0
DWIDTH 15 0
BBX 13 13 2 0
BITMAP
03F8
07F8
1E38
3830
3030
7070
60F0
E1F0
E1E0
E360
E760
FCE0
78E0
ENDCHAR
STARTCHAR b
ENCODING 98
SWIDTH 608 0
DWIDTH 15 0
BBX 13 17 2 0
BITMAP
0C00
1C00
1800
1800
18F0
19F8
3338
3638
3C38
3C38
7830
7070
6060
60E0
63C0
FF00
FE00
ENDCHAR
STARTCHAR c
ENCODING 99
SWIDTH 503 0
DWIDTH 12 0
BBX 11 13 2 0
BITMAP
07E0
0FE0
1C20
3000
7000
6000
E000
C000
C000
E000
E080
7F80
3E00
ENDCHAR
STARTCHAR d
ENCODING 100
SWIDTH 608 0
DWIDTH 15 0
BBX 14 17 2 0
BITMAP
000C
001C
0018
0018
03F8
0FF8
1C38
3830
3030
7070
60F0
E1F0
E1E0
E360
E7E0
FCE0
78C0
ENDCHAR
STARTCHAR e
ENCODING 101
SWIDTH 529 0
DWIDTH 13 0
BBX 10 13 2 0
BITMAP
0780
0FC0
38C0
30C0
60C0
6380
FF00
F800
C000
E040
E1C0
7FC0
3E00
ENDCHAR
STARTCHAR f
ENCODING 102
SWIDTH 383 0
DWIDTH 9 0
BBX 12 24 2 -5
BITMAP
01F0
03F0
0700
0E00
0C00
0C00
7F80
7F80
1800
1800
1800
3800
3800
3000
3000
3000
7000
7000
6000
6000
6000
E000
E000
C000
ENDCHAR
STARTCHAR g
ENCODING 103
SWIDTH 608 0
DWIDTH 15 0
BBX 14 18 1 -5
BITMAP
01FC
07FC
0E18
1C18
1818
3838
3038
7070
70F0
71B0
7330
7E70
3C60
0060
00E0
C0C0
FF80
7E00
ENDCHAR
STARTCHAR h
ENCODING 104
SWIDTH 620 0
DWIDTH 15 0
BBX 12 17 2 0
BITMAP
1C00
1C00
1800
1800
18E0
3BF0
3730
3E30
3C70
3870
7860
7060
6060
60E0
60E0
E0C0
C0C0
ENDCHAR
STARTCHAR i
ENCODING 105
SWIDTH 289 0
DWIDTH 7 0
BBX 6 17 2 0
BITMAP
1C
1C
00
00
18
38
30
30
30
30
70
60
60
60
60
E0
C0
ENDCHAR
STARTCHAR j
ENCODING 106
SWIDTH 325 0
DWIDTH 8 0
BBX 12 22 -2 -5
BITMAP
0030
0070
0000
0000
0060
00E0
00E0
00C0
00C0
00C0
01C0
01C0
0180
0180
0180
0380
0380
0300
0700
8E00
FC00
F800
ENDCHAR
STARTCHAR k
ENCODING 107
SWIDTH 572 0
DWIDTH 14 0
BBX 12 17 3 0
BITMAP
1C00
1C00
1800
1800
1870
38E0
31C0
3380
3700
3E00
6C00
6E00
6700
6300
6180
E1C0
C0E0
ENDCHAR
STARTCHAR l
ENCODING 108
SWIDTH 289 0
DWIDTH 7 0
BBX 6 17 2 0
BITMAP
0C
1C
18
18
18
38
38
30
30
30
70
70
60
60
60
E0
C0
ENDCHAR
STARTCHAR m
ENCODING 109
SWIDTH 934 0
DWIDTH 22 0
BBX 20 13 2 0
BITMAP
18F0E0
39F3F0
373770
363E70
3C7C70
3C7860
787860
707060
606060
6060E0
60E0C0
C0C0C0
C0C0C0
ENDCHAR
STARTCHAR n
ENCODING 110
SWIDTH 620 0
DWIDTH 15 0
BBX 12 13 2 0
BITMAP
38E0
33F0
3730
3E30
3C70
7C70
7860
7060
6060
60E0
E0E0
E0C0
C0C0
ENDCHAR
STARTCHAR o
ENCODING 111
SWIDTH 566 0
DWIDTH 14 0
BBX 12 13 2 0
BITMAP
07C0
1FE0
3870
3070
6070
6070
E070
C060
C0E0
E0C0
E380
7F00
3E00
ENDCHAR
STARTCHAR p
ENCODING 112
SWIDTH 608 0
DWIDTH 15 0
BBX 14 18 1 -5
BITMAP
1C78
1CFC
1B9C
1F1C
1E1C
3E1C
3C18
3838
3030
3070
71E0
7F80
7F00
6000
6000
E000
E000
C000
ENDCHAR
STARTCHAR q
ENCODING 113
SWIDTH 608 0
DWIDTH 15 0
BBX 13 18 2 -5
BITMAP
03F8
07F8
1E38
3830
3030
7070
60F0
E1F0
E1E0
E360
E760
FCE0
78E0
00C0
00C0
00C0
01C0
01C0
ENDCHAR
STARTCHAR r
ENCODING 114
SWIDTH 478 0
DWIDTH 11 0
BBX 11 13 2 0
BITMAP
38E0
39E0
3300
3600
3C00
7C00
7800
7000
6000
6000
E000
E000
C000
ENDCHAR
STARTCHAR s
ENCODING 115
SWIDTH 489 0
DWIDTH 12 0
BBX 10 13 2 0
BITMAP
0F80
1FC0
3840
3800
3800
1C00
0E00
0700
0300
0380
C380
FF00
7E00
ENDCHAR
STARTCHAR t
ENCODING 116
SWIDTH 383 0
DWIDTH 9 0
BBX 8 16 3 0
BITMAP
18
18
18
FF
FF
30
30
30
70
60
60
60
E0
60
7C
38
ENDCHAR
STARTCHAR u
ENCODING 117
SWIDTH 620 0
DWIDTH 15 0
BBX 12 13 3 0
BITMAP
3030
3070
3070
6060
6060
60E0
61E0
61E0
C3C0
C7C0
CEC0
FCC0
71C0
ENDCHAR
STARTCHAR v
ENCODING 118
SWIDTH 545 0
DWIDTH 13 0
BBX 12 13 3 0
BITMAP
C070
C060
C0C0
E0C0
6180
6380
6300
6600
6600
6C00
7C00
7800
3000
ENDCHAR
STARTCHAR w
ENCODING 119
SWIDTH 795 0
DWIDTH 19 0
BBX 18 13 3 0
BITMAP
C0C0C0
C1C180
C1C180
E3C300
E3C300
E6E600
666E00
6C6C00
6C7C00
787800
787800
707000
707000
ENDCHAR
STARTCHAR x
ENCODING 120
SWIDTH 541 0
DWIDTH 13 0
BBX 14 13 1 0
BITMAP
1C1C
0C38
0E70
0660
07C0
0380
0380
0780
0DC0
18C0
38E0
7060
E070
ENDCHAR
STARTCHAR y
ENCODING 121
SWIDTH 548 0
DWIDTH 13 0
BBX 13 18 2 -5
BITMAP
6038
6030
7070
7060
30C0
31C0
3180
3380
3B00
3E00
3E00
1C00
1C00
1800
3000
3000
6000
E000
ENDCHAR
STARTCHAR z
ENCODING 122
SWIDTH 536 0
DWIDTH 13 0
BBX 12 13 2 0
BITMAP
1FF0
3FF0
00E0
01C0
0380
0700
0700
0E00
1C00
3800
7000
FFE0
FFC0
ENDCHAR
STARTCHAR braceleft
ENCODING 123
SWIDTH 325 0
DWIDTH 8 0
BBX 8 21 2 -4
BITMAP
07
0F
0C
1C
1C
1C
18
18
38
F0
E0
20
30
30
70
60
60
C0
C0
70
30
ENDCHAR
STARTCHAR bar
ENCODING 124
SWIDTH 233 0
DWIDTH 6 0
BBX 6 21 1 -4
BITMAP
0C
0C
08
08
18
18
18
10
10
30
30
30
20
20
60
60
60
40
40
C0
C0
ENDCHAR
STARTCHAR braceright
ENCODING 125
SWIDTH 325 0
DWIDTH 8 0
BBX 8 21 1 -4
BITMAP
0C
0F
03
03
07
06
06
0C
0E
07
03
0C
18
18
18
18
18
38
38
F0
E0
ENDCHAR
STARTCHAR asciitilde
ENCODING 126
SWIDTH 633 0
DWIDTH 15 0
BBX 15 6 1 4
BITMAP
1C06
3E06
6704
41CC
C0F8
C070
ENDCHAR
STARTCHAR afii10051
ENCODING 128
SWIDTH 875 0
DWIDTH 21 0
BBX 18 17 3 0
BITMAP
FFFE00
FFFE00
030000
030000
030000
070000
077F00
06FF80
07C3C0
0781C0
0F01C0
0E01C0
0C0180
0C0380
0C0700
1C7E00
1C7800
ENDCHAR
STARTCHAR afii10052
ENCODING 129
SWIDTH 541 0
DWIDTH 13 0
BBX 13 21 2 0
BITMAP
0070
00C0
0380
0000
1FF8
1FF8
1800
1800
1800
3800
3800
3000
3000
3000
7000
7000
6000
6000
6000
E000
E000
ENDCHAR
STARTCHAR quotesinglbase
ENCODING 130
SWIDTH 217 0
DWIDTH 5 0
BBX 4 8 1 -4
BITMAP
70
70
70
70
20
60
60
C0
ENDCHAR
STARTCHAR afii10100
ENCODING 131
SWIDTH 541 0
DWIDTH 13 0
BBX 11 17 2 0
BITMAP
00E0
0180
0700
0000
0F80
3FC0
39C0
20C0
01C0
0780
1F00
7C00
F000
E080
E380
7F80
3C00
ENDCHAR
STARTCHAR quotedblbase
ENCODING 132
SWIDTH 361 0
DWIDTH 9 0
BBX 8 8 0 -5
BITMAP
77
66
66
62
66
46
CC
88
ENDCHAR
STARTCHAR ellipsis
ENCODING 133
SWIDTH 1000 0
DWIDTH 24 0
BBX 19 2 3 0
BITMAP
E0E060
C0E0E0
ENDCHAR
STARTCHAR dagger
ENCODING 134
SWIDTH 633 0
DWIDTH 15 0
BBX 10 21 5 -4
BITMAP
0600
0600
0600
0600
0C00
0C00
FFC0
FFC0
0C00
0C00
0800
1800
1800
1800
1800
3000
3000
3000
3000
3000
7000
ENDCHAR
STARTCHAR daggerdbl
ENCODING 135
SWIDTH 633 0
DWIDTH 15 0
BBX 12 21 3 -4
BITMAP
0180
0180
0180
0300
0300
0300
3FF0
7FF0
0700
0600
0600
0600
0E00
FFE0
FFC0
0C00
0C00
0C00
1800
1800
1800
ENDCHAR
STARTCHAR Euro
ENCODING 136
SWIDTH 708 0
DWIDTH 17 0
BBX 17 17 3 0
BITMAP
00FF00
03FF80
078180
0E0000
1C0000
380000
380000
7FF000
700000
FFC000
700000
700000
700000
700000
3C0C00
1FFC00
07F000
ENDCHAR
STARTCHAR perthousand
ENCODING 137
SWIDTH 1027 0
DWIDTH 25 0
BBX 24 17 2 0
BITMAP
0F0180
1F8300
398600
318C00
219800
333000
3F6000
1E6000
00DC1E
01BE3F
036373
066363
0CC343
18C643
30E666
607C7E
C03838
ENDCHAR
STARTCHAR afii10058
ENCODING 138
SWIDTH 1000 0
DWIDTH 24 0
BBX 24 17 0 0
BITMAP
01FFC0
01FFC0
0181C0
018180
018180
038380
038380
0303F0
0303F8
07031E
060706
060707
0E0607
0C0607
1C061E
F80FFC
E00FF8
ENDCHAR
STARTCHAR guilsinglleft
ENCODING 139
SWIDTH 328 0
DWIDTH 8 0
BBX 7 11 2 1
BITMAP
04
0E
1C
38
70
E0
60
60
30
18
10
ENDCHAR
STARTCHAR afii10059
ENCODING 140
SWIDTH 1000 0
DWIDTH 24 0
BBX 22 17 2 0
BITMAP
1C0700
1C0700
180600
180600
180600
380E00
380E00
3FFFC0
3FFFE0
300C78
701C18
701C1C
60181C
60181C
601878
E03FF0
E03FE0
ENDCHAR
STARTCHAR afii10061
ENCODING 141
SWIDTH 625 0
DWIDTH 15 0
BBX 15 21 2 0
BITMAP
0038
0060
01C0
0000
1C0E
1C1C
1838
1870
18E0
39C0
3B80
3700
3E00
3700
7300
7180
61C0
60C0
6060
E070
E038
ENDCHAR
STARTCHAR afii10060
ENCODING 142
SWIDTH 875 0
DWIDTH 21 0
BBX 18 17 3 0
BITMAP
FFFE00
FFFE00
030000
030000
030000
070000
077F00
06FF80
07C3C0
0781C0
0F01C0
0E01C0
0C0180
0C0180
0C0380
1C0380
1C0380
ENDCHAR
STARTCHAR afii10145
ENCODING 143
SWIDTH 750 0
DWIDTH 18 0
BBX 17 21 2 -4
BITMAP
1C0380
1C0380
180300
180300
180300
380700
380700
300600
300600
300600
700E00
700E00
600C00
600C00
E00C00
FFFC00
FFFC00
030000
060000
060000
060000
ENDCHAR
STARTCHAR afii10099
ENCODING 144
SWIDTH 625 0
DWIDTH 15 0
BBX 12 22 2 -5
BITMAP
1C00
7FC0
7FC0
1800
18E0
3BF0
3730
3E30
3C70
3870
7860
7060
6060
60E0
60E0
E0C0
C0C0
01C0
0180
0380
1F00
1E00
ENDCHAR
STARTCHAR quoteleft
ENCODING 145
SWIDTH 217 0
DWIDTH 5 0
BBX 4 6 4 11
BITMAP
30
60
40
C0
E0
E0
ENDCHAR
STARTCHAR quoteright
ENCODING 146
SWIDTH 217 0
DWIDTH 5 0
BBX 4 6 4 11
BITMAP
70
70
30
60
E0
80
ENDCHAR
STARTCHAR quotedblleft
ENCODING 147
SWIDTH 361 0
DWIDTH 9 0
BBX 8 5 4 12
BITMAP
33
66
4C
EE
CE
ENDCHAR
STARTCHAR quotedblright
ENCODING 148
SWIDTH 361 0
DWIDTH 9 0
BBX 8 5 4 12
BITMAP
77
66
66
44
88
ENDCHAR
STARTCHAR bullet
ENCODING 149
SWIDTH 633 0
DWIDTH 15 0
BBX 9 7 4 4
BITMAP
7F80
7F80
7F00
7F00
7F00
FF00
FF00
ENDCHAR
STARTCHAR endash
ENCODING 150
SWIDTH 500 0
DWIDTH 12 0
BBX 10 2 2 7
BITMAP
FFC0
FFC0
ENDCHAR
STARTCHAR emdash
ENCODING 151
SWIDTH 1000 0
DWIDTH 24 0
BBX 22 2 2 6
BITMAP
FFFFFC
FFFFFC
ENDCHAR
STARTCHAR trademark
ENCODING 153
SWIDTH 801 0
DWIDTH 19 0
BBX 18 9 3 8
BITMAP
FF71C0
FF71C0
1873C0
187380
305780
30DD80
30D980
30D980
708300
ENDCHAR
STARTCHAR afii10106
ENCODING 154
SWIDTH 875 0
DWIDTH 21 0
BBX 20 13 1 0
BITMAP
07FC00
07FC00
061C00
0619C0
061BE0
0E1E30
0C3C30
0C3830
0C3860
183060
1831C0
F03F80
E01E00
ENDCHAR
STARTCHAR guilsinglright
ENCODING 155
SWIDTH 328 0
DWIDTH 8 0
BBX 7 11 1 1
BITMAP
30
30
18
1C
0C
0E
1C
38
70
E0
40
ENDCHAR
STARTCHAR afii10107
ENCODING 156
SWIDTH 875 0
DWIDTH 21 0
BBX 19 13 2 0
BITMAP
181800
383800
303000
303380
3037C0
3FFC60
7FF860
607060
6070C0
6060C0
606380
E07F00
C03C00
ENDCHAR
STARTCHAR afii10109
ENCODING 157
SWIDTH 583 0
DWIDTH 14 0
BBX 12 17 3 0
BITMAP
0070
00C0
0380
0000
1870
38E0
31C0
3380
3700
3E00
6C00
6E00
6700
6300
6180
E1C0
C0E0
ENDCHAR
STARTCHAR afii10108
ENCODING 158
SWIDTH 625 0
DWIDTH 15 0
BBX 12 17 2 0
BITMAP
1C00
7FC0
7FC0
1800
18E0
3BF0
3730
3E30
3C70
3870
7860
7060
6060
60E0
60E0
E0C0
C0C0
ENDCHAR
STARTCHAR afii10193
ENCODING 159
SWIDTH 625 0
DWIDTH 15 0
BBX 12 16 3 -3
BITMAP
3030
3070
3070
6060
6060
60E0
61E0
61E0
C3C0
C7C0
CEC0
FCC0
79C0
3000
7000
6000
ENDCHAR
STARTCHAR space
ENCODING 160
SWIDTH 316 0
DWIDTH 8 0
BBX 0 0 0 0
BITMAP
ENDCHAR
STARTCHAR afii10062
ENCODING 161
SWIDTH 666 0
DWIDTH 16 0
BBX 17 21 3 0
BITMAP
021000
03F000
01E000
000000
700380
700700
300E00
300C00
381C00
383800
187000
186000
1CE000
1DC000
0F8000
0F0000
0F0000
0E0000
1C0000
F80000
F00000
ENDCHAR
STARTCHAR afii10110
ENCODING 162
SWIDTH 541 0
DWIDTH 13 0
BBX 13 22 2 -5
BITMAP
0440
07C0
0380
0000
6038
6030
7070
7060
30C0
31C0
3180
3380
3B00
3E00
3E00
1C00
1C00
1800
3000
3000
6000
E000
ENDCHAR
STARTCHAR afii10057
ENCODING 163
SWIDTH 408 0
DWIDTH 10 0
BBX 12 21 0 -4
BITMAP
0070
0070
0060
0060
0060
00E0
00E0
00C0
00C0
00C0
01C0
01C0
0180
0180
0180
0380
0300
0300
8700
FE00
F800
ENDCHAR
STARTCHAR currency
ENCODING 164
SWIDTH 633 0
DWIDTH 15 0
BBX 17 15 1 1
BITMAP
100100
380380
1DEE00
0FFC00
0E1800
0C0800
180800
180800
181800
181800
0C7000
1FF800
33D800
E00C00
400800
ENDCHAR
STARTCHAR afii10050
ENCODING 165
SWIDTH 541 0
DWIDTH 13 0
BBX 14 21 2 0
BITMAP
000C
000C
001C
0018
1FF8
1FF8
1800
1800
1800
3800
3800
3000
3000
3000
7000
7000
6000
6000
6000
E000
E000
ENDCHAR
STARTCHAR brokenbar
ENCODING 166
SWIDTH 233 0
DWIDTH 6 0
BBX 6 21 1 -4
BITMAP
0C
0C
08
08
18
18
18
10
00
00
00
00
00
20
60
60
60
40
40
C0
C0
ENDCHAR
STARTCHAR section
ENCODING 167
SWIDTH 633 0
DWIDTH 15 0
BBX 13 22 2 -5
BITMAP
03F8
0FF8
1C18
1800
1800
1800
0E00
0F80
1BC0
30E0
3070
3070
3860
1FE0
0FC0
01C0
00E0
00E0
00C0
C1C0
FF80
7F00
ENDCHAR
STARTCHAR afii10023
ENCODING 168
SWIDTH 547 0
DWIDTH 13 0
BBX 13 20 2 0
BITMAP
0C60
0C60
0000
1FF8
1FF8
1800
1800
3800
3800
3000
3FC0
3FC0
7000
7000
7000
6000
6000
E000
FFC0
FFC0
ENDCHAR
STARTCHAR copyright
ENCODING 169
SWIDTH 858 0
DWIDTH 21 0
BBX 18 17 3 0
BITMAP
03F000
0FFE00
1C0F00
300380
60F980
43FCC0
C70840
860040
8C0040
8C0040
CE1040
47F0C0
63E180
300380
1C0F00
0FFE00
03F000
ENDCHAR
STARTCHAR afii10053
ENCODING 170
SWIDTH 666 0
DWIDTH 16 0
BBX 16 17 3 0
BITMAP
01FE
07FF
0F03
1C00
3800
7000
7000
7FC0
FFC0
E000
E000
E000
E000
E000
7818
3FF8
0FE0
ENDCHAR
STARTCHAR guillemotleft
ENCODING 171
SWIDTH 527 0
DWIDTH 13 0
BBX 12 11 2 1
BITMAP
0420
0E70
1CE0
39C0
7380
E700
6300
6380
3180
18C0
1080
ENDCHAR
STARTCHAR logicalnot
ENCODING 172
SWIDTH 633 0
DWIDTH 15 0
BBX 14 7 2 3
BITMAP
FFFC
FFFC
000C
0008
0008
0018
0018
ENDCHAR
STARTCHAR hyphen
ENCODING 173
SWIDTH 313 0
DWIDTH 8 0
BBX 6 2 2 7
BITMAP
FC
FC
ENDCHAR
STARTCHAR registered
ENCODING 174
SWIDTH 633 0
DWIDTH 15 0
BBX 9 10 5 7
BITMAP
3E00
7F00
6380
DF80
9E80
9C80
F580
6380
7F00
3E00
ENDCHAR
STARTCHAR afii10056
ENCODING 175
SWIDTH 289 0
DWIDTH 7 0
BBX 8 20 2 0
BITMAP
63
63
00
1C
1C
18
18
18
38
38
30
30
30
70
70
60
60
60
E0
E0
ENDCHAR
STARTCHAR degree
ENCODING 176
SWIDTH 269 0
DWIDTH 6 0
BBX 4 4 4 13
BITMAP
60
90
90
60
ENDCHAR
STARTCHAR plusminus
ENCODING 177
SWIDTH 633 0
DWIDTH 15 0
BBX 16 14 1 0
BITMAP
0060
0040
00C0
00C0
3FFF
3FFF
0080
0180
0180
0180
0000
0000
FFFC
FFFC
ENDCHAR
STARTCHAR afii10055
ENCODING 178
SWIDTH 289 0
DWIDTH 7 0
BBX 6 17 2 0
BITMAP
1C
1C
18
18
18
38
38
30
30
30
70
70
60
60
60
E0
E0
ENDCHAR
STARTCHAR afii10103
ENCODING 179
SWIDTH 289 0
DWIDTH 7 0
BBX 6 17 2 0
BITMAP
1C
1C
00
00
18
38
30
30
30
30
70
60
60
60
60
E0
C0
ENDCHAR
STARTCHAR afii10098
ENCODING 180
SWIDTH 458 0
DWIDTH 11 0
BBX 12 16 2 0
BITMAP
0030
0030
0030
3FE0
3FE0
3000
3000
3000
7000
6000
6000
6000
6000
E000
E000
C000
ENDCHAR
STARTCHAR mu
ENCODING 181
SWIDTH 627 0
DWIDTH 15 0
BBX 14 17 1 -4
BITMAP
1C0C
181C
1818
1818
3818
3838
3038
3070
30F0
71B0
7330
7F70
7C60
6000
E000
E000
C000
ENDCHAR
STARTCHAR paragraph
ENCODING 182
SWIDTH 633 0
DWIDTH 15 0
BBX 11 21 4 -4
BITMAP
3FE0
7FE0
FE40
FE40
FE40
FEC0
7CC0
3C80
1C80
0C80
0D80
0980
0900
1900
1900
1B00
1300
1200
3200
3200
3600
ENDCHAR
STARTCHAR periodcentered
ENCODING 183
SWIDTH 316 0
DWIDTH 15 0
BBX 3 2 7 7
BITMAP
E0
E0
ENDCHAR
STARTCHAR afii10071
ENCODING 184
SWIDTH 529 0
DWIDTH 13 0
BBX 11 16 2 0
BITMAP
0C60
0C60
0000
0780
0FC0
38C0
30C0
60C0
6380
FF00
F800
C000
E040
E1C0
7FC0
3E00
ENDCHAR
STARTCHAR afii61352
ENCODING 185
SWIDTH 1000 0
DWIDTH 24 0
BBX 23 17 2 0
BITMAP
1C0180
1E0180
1E0300
1F0300
1F031C
3B033E
338366
318666
31C666
30C666
60E67C
606E38
607C00
607CFC
603CFC
C03C00
C01C00
ENDCHAR
STARTCHAR afii10101
ENCODING 186
SWIDTH 500 0
DWIDTH 12 0
BBX 11 13 2 0
BITMAP
07E0
0FE0
1C20
3000
7000
7E00
FE00
C000
C000
E000
E080
7F80
3E00
ENDCHAR
STARTCHAR guillemotright
ENCODING 187
SWIDTH 527 0
DWIDTH 13 0
BBX 12 11 1 1
BITMAP
3180
3180
18C0
1CE0
0C60
0E70
1CE0
39C0
7380
E700
4200
ENDCHAR
STARTCHAR afii10105
ENCODING 188
SWIDTH 325 0
DWIDTH 8 0
BBX 12 22 -2 -5
BITMAP
0030
0070
0000
0000
0060
00E0
00E0
00C0
00C0
00C0
01C0
01C0
0180
0180
0180
0380
0380
0300
0700
8E00
FC00
F800
ENDCHAR
STARTCHAR afii10054
ENCODING 189
SWIDTH 553 0
DWIDTH 13 0
BBX 13 17 2 0
BITMAP
03F0
0FF8
1E08
1C00
1800
1C00
1E00
0F00
0780
01C0
00E0
0060
0060
00E0
C1E0
FFC0
7F00
ENDCHAR
STARTCHAR afii10102
ENCODING 190
SWIDTH 489 0
DWIDTH 12 0
BBX 10 13 2 0
BITMAP
0F80
1FC0
3840
3800
3800
1C00
0E00
0700
0300
0380
C380
FF00
7E00
ENDCHAR
STARTCHAR afii10104
ENCODING 191
SWIDTH 289 0
DWIDTH 7 0
BBX 8 16 2 0
BITMAP
63
63
00
18
38
30
30
30
30
70
60
60
60
60
E0
C0
ENDCHAR
STARTCHAR afii10017
ENCODING 192
SWIDTH 666 0
DWIDTH 16 0
BBX 16 17 0 0
BITMAP
0038
0078
0078
00D8
01DC
019C
039C
030C
060C
060E
0C0E
1FFE
1FFE
3006
3007
6007
E007
ENDCHAR
STARTCHAR afii10018
ENCODING 193
SWIDTH 583 0
DWIDTH 14 0
BBX 13 17 2 0
BITMAP
1FF8
1FF8
1800
1800
3800
3800
3000
3F00
3F80
71E0
7060
7070
6070
6070
E1E0
FFC0
FF80
ENDCHAR
STARTCHAR afii10019
ENCODING 194
SWIDTH 583 0
DWIDTH 14 0
BBX 13 17 2 0
BITMAP
1FE0
1FF0
1838
1838
3830
3870
30E0
3FC0
3F80
71E0
7060
7070
6070
6070
E1E0
FFC0
FF80
ENDCHAR
STARTCHAR afii10020
ENCODING 195
SWIDTH 541 0
DWIDTH 13 0
BBX 13 17 2 0
BITMAP
1FF8
1FF8
1800
1800
1800
3800
3800
3000
3000
3000
7000
7000
6000
6000
6000
E000
E000
ENDCHAR
STARTCHAR afii10021
ENCODING 196
SWIDTH 750 0
DWIDTH 18 0
BBX 20 21 -1 -4
BITMAP
00FFF0
00FFF0
00C070
00C060
00C060
01C0E0
01C0E0
0180C0
0180C0
0380C0
0301C0
0701C0
060180
0C0180
1C0180
7FFFE0
7FFFE0
600060
C000C0
C000C0
C000C0
ENDCHAR
STARTCHAR afii10022
ENCODING 197
SWIDTH 541 0
DWIDTH 13 0
BBX 13 17 2 0
BITMAP
1FF8
1FF8
1800
1800
3800
3800
3000
3FC0
3FC0
7000
7000
7000
6000
6000
E000
FFC0
FFC0
ENDCHAR
STARTCHAR afii10024
ENCODING 198
SWIDTH 916 0
DWIDTH 22 0
BBX 24 17 0 0
BITMAP
1C0E07
0E0E0E
0E0C1C
070C38
038C70
039CE0
01DDC0
01DB80
00FF00
01DB80
03B980
0738C0
0E30E0
1C3060
383030
707038
E0701C
ENDCHAR
STARTCHAR afii10025
ENCODING 199
SWIDTH 583 0
DWIDTH 14 0
BBX 13 17 2 0
BITMAP
07E0
1FF0
1838
0038
0030
0070
00E0
0FC0
0F80
01E0
0060
0070
0070
0070
C1E0
FFC0
7F80
ENDCHAR
STARTCHAR afii10026
ENCODING 200
SWIDTH 750 0
DWIDTH 18 0
BBX 17 17 2 0
BITMAP
180380
180780
180F80
181F00
183B00
383B00
307300
30E600
31C600
338600
670600
6E0E00
6E0C00
7C0C00
F80C00
F00C00
E00C00
ENDCHAR
STARTCHAR afii10027
ENCODING 201
SWIDTH 750 0
DWIDTH 18 0
BBX 17 21 2 0
BITMAP
010800
01F800
00F000
000000
180380
180780
180F80
181F00
183B00
383B00
307300
30E600
31C600
338600
670600
6E0E00
6E0C00
7C0C00
F80C00
F00C00
E00C00
ENDCHAR
STARTCHAR afii10028
ENCODING 202
SWIDTH 625 0
DWIDTH 15 0
BBX 15 17 2 0
BITMAP
1C0E
1C1C
1838
1870
18E0
39C0
3B80
3700
3E00
3700
7300
7180
61C0
60C0
6060
E070
E038
ENDCHAR
STARTCHAR afii10029
ENCODING 203
SWIDTH 750 0
DWIDTH 18 0
BBX 19 17 0 0
BITMAP
01FFE0
01FFE0
0180E0
0180C0
0180C0
0381C0
0381C0
030180
030180
070180
060380
060380
0E0300
0C0300
1C0300
F80700
E00700
ENDCHAR
STARTCHAR afii10030
ENCODING 204
SWIDTH 833 0
DWIDTH 20 0
BBX 19 17 2 0
BITMAP
1E01E0
1E01E0
1E03C0
1E03C0
1F06C0
3706C0
330DC0
331D80
331980
333180
633180
63E380
63E300
61C300
61C300
C00300
C00700
ENDCHAR
STARTCHAR afii10031
ENCODING 205
SWIDTH 750 0
DWIDTH 18 0
BBX 17 17 2 0
BITMAP
1C0380
1C0380
180300
180300
180300
380700
380700
3FFE00
3FFE00
300600
700E00
700E00
600C00
600C00
600C00
E01C00
E01C00
ENDCHAR
STARTCHAR afii10032
ENCODING 206
SWIDTH 791 0
DWIDTH 19 0
BBX 17 17 3 0
BITMAP
01F800
07FE00
0F0F00
1C0700
380380
700380
700380
600380
E00380
E00300
E00700
E00600
E00E00
F01C00
787800
3FF000
0F8000
ENDCHAR
STARTCHAR afii10033
ENCODING 207
SWIDTH 750 0
DWIDTH 18 0
BBX 17 17 2 0
BITMAP
1FFF80
1FFF80
180380
180300
180300
380700
380700
300600
300600
300600
700E00
700E00
600C00
600C00
600C00
E01C00
E01C00
ENDCHAR
STARTCHAR afii10034
ENCODING 208
SWIDTH 583 0
DWIDTH 14 0
BBX 13 17 2 0
BITMAP
1FE0
1FF8
1838
1838
3838
3838
3070
30E0
3FC0
7F00
7000
6000
6000
6000
E000
E000
E000
ENDCHAR
STARTCHAR afii10035
ENCODING 209
SWIDTH 666 0
DWIDTH 16 0
BBX 16 17 3 0
BITMAP
01FE
07FF
0F03
1C00
3800
7000
7000
6000
E000
E000
E000
E000
E000
E000
7818
3FF8
0FE0
ENDCHAR
STARTCHAR afii10036
ENCODING 210
SWIDTH 625 0
DWIDTH 15 0
BBX 15 17 3 0
BITMAP
FFFE
FFFE
0300
0300
0300
0700
0700
0600
0600
0600
0E00
0E00
0C00
0C00
0C00
1C00
1C00
ENDCHAR
STARTCHAR afii10037
ENCODING 211
SWIDTH 666 0
DWIDTH 16 0
BBX 17 17 3 0
BITMAP
700380
700700
300E00
300C00
381C00
383800
187000
186000
1CE000
1DC000
0F8000
0F0000
0F0000
0E0000
1C0000
F80000
F00000
ENDCHAR
STARTCHAR afii10038
ENCODING 212
SWIDTH 833 0
DWIDTH 20 0
BBX 18 17 3 0
BITMAP
007000
007000
03FC00
0FFF00
1C6380
306180
70E1C0
60C1C0
E0C1C0
E0C180
E1C380
618300
718E00
3FFC00
0FF000
038000
038000
ENDCHAR
STARTCHAR afii10039
ENCODING 213
SWIDTH 625 0
DWIDTH 15 0
BBX 17 17 0 0
BITMAP
0E0380
0E0700
070E00
071C00
031800
03B000
01E000
01E000
01C000
03E000
036000
067000
0C7000
1C3800
383800
701C00
E01C00
ENDCHAR
STARTCHAR afii10040
ENCODING 214
SWIDTH 750 0
DWIDTH 18 0
BBX 17 21 2 -4
BITMAP
1C0380
1C0380
180300
180300
180300
380700
380700
300600
300600
300600
700E00
700E00
600C00
600C00
E00C00
FFFF00
FFFF00
000300
000600
000600
000600
ENDCHAR
STARTCHAR afii10041
ENCODING 215
SWIDTH 708 0
DWIDTH 17 0
BBX 15 17 3 0
BITMAP
700E
700E
700C
600C
600C
E01C
E03C
E078
F0F8
7FD8
3FB8
0038
0030
0030
0030
0070
0070
ENDCHAR
STARTCHAR afii10042
ENCODING 216
SWIDTH 1041 0
DWIDTH 25 0
BBX 24 17 2 0
BITMAP
1C0E07
1C0E07
180C06
180C06
180C06
381C0E
381C0E
30180C
30180C
30180C
70381C
70381C
603018
603018
E07018
FFFFF8
FFFFF8
ENDCHAR
STARTCHAR afii10043
ENCODING 217
SWIDTH 1041 0
DWIDTH 25 0
BBX 24 21 2 -4
BITMAP
1C0E07
1C0E07
180C06
180C06
180C06
381C0E
381C0E
30180C
30180C
30180C
70381C
70381C
603018
603018
E07018
FFFFFE
FFFFFE
000006
00000C
00000C
00000C
ENDCHAR
STARTCHAR afii10044
ENCODING 218
SWIDTH 625 0
DWIDTH 15 0
BBX 12 17 3 0
BITMAP
FC00
FC00
1C00
1800
3800
3800
3000
3F00
3F80
31E0
7060
7070
6070
6070
E1E0
FFC0
FF80
ENDCHAR
STARTCHAR afii10045
ENCODING 219
SWIDTH 875 0
DWIDTH 21 0
BBX 20 17 2 0
BITMAP
1C0070
1C0070
180060
180060
380060
3800E0
3000E0
3F00C0
3F80C0
71E0C0
7061C0
7071C0
607180
607180
E1E180
FFC380
FF8380
ENDCHAR
STARTCHAR afii10046
ENCODING 220
SWIDTH 583 0
DWIDTH 14 0
BBX 12 17 2 0
BITMAP
1C00
1C00
1800
1800
3800
3800
3000
3F00
3F80
71E0
7060
7070
6070
6070
E1E0
FFC0
FF80
ENDCHAR
STARTCHAR afii10047
ENCODING 221
SWIDTH 666 0
DWIDTH 16 0
BBX 16 17 1 0
BITMAP
07F0
1FFC
181E
000E
0007
0007
0007
03FF
03FF
0006
000E
000C
001C
0038
C0F0
FFE0
7F00
ENDCHAR
STARTCHAR afii10048
ENCODING 222
SWIDTH 1083 0
DWIDTH 26 0
BBX 25 17 2 0
BITMAP
1C01F800
1C07FE00
180F0F00
181C0700
18380380
38700380
38700380
3FE00380
3FE00380
30E00300
70E00700
70E00600
60E00E00
60F01C00
60787800
E03FF000
E00F8000
ENDCHAR
STARTCHAR afii10049
ENCODING 223
SWIDTH 625 0
DWIDTH 15 0
BBX 15 17 1 0
BITMAP
03FE
07FE
0E0E
1C0C
1C0C
1C1C
0E1C
0F1C
03F8
03F8
0718
0E38
1C38
3830
7030
E070
C070
ENDCHAR
STARTCHAR afii10065
ENCODING 224
SWIDTH 625 0
DWIDTH 15 0
BBX 13 13 2 0
BITMAP
03F8
07F8
1E38
3830
3030
7070
60F0
E1F0
E1E0
E360
E760
FCE0
78E0
ENDCHAR
STARTCHAR afii10066
ENCODING 225
SWIDTH 583 0
DWIDTH 14 0
BBX 14 18 2 0
BITMAP
0004
00FC
03F8
0700
0C00
1DC0
1BE0
3E70
3C70
7870
7070
E070
C060
C0E0
E0C0
E380
7F00
3E00
ENDCHAR
STARTCHAR afii10067
ENCODING 226
SWIDTH 583 0
DWIDTH 14 0
BBX 13 17 2 0
BITMAP
00F0
03F8
0718
0C18
1C30
1870
30E0
33E0
6670
6470
E070
C070
C0E0
E0E0
E1C0
7F80
3F00
ENDCHAR
STARTCHAR afii10068
ENCODING 227
SWIDTH 541 0
DWIDTH 13 0
BBX 10 13 2 0
BITMAP
0F80
3FC0
39C0
20C0
01C0
0780
1F00
7C00
F000
E080
E380
7F80
3C00
ENDCHAR
STARTCHAR afii10069
ENCODING 228
SWIDTH 583 0
DWIDTH 14 0
BBX 12 17 2 0
BITMAP
0E00
0F80
01C0
00C0
06E0
1FE0
38F0
3070
6070
6070
E070
C060
C0E0
E0C0
E380
7F00
3E00
ENDCHAR
STARTCHAR afii10070
ENCODING 229
SWIDTH 541 0
DWIDTH 13 0
BBX 10 13 2 0
BITMAP
0780
0FC0
38C0
30C0
60C0
6380
FF00
F800
C000
E040
E1C0
7FC0
3E00
ENDCHAR
STARTCHAR afii10072
ENCODING 230
SWIDTH 833 0
DWIDTH 20 0
BBX 20 13 1 0
BITMAP
0E1870
0738E0
0731C0
03B380
03B700
01FE00
03EC00
076E00
0E6700
1C6300
386180
70E1C0
E0C0E0
ENDCHAR
STARTCHAR afii10073
ENCODING 231
SWIDTH 458 0
DWIDTH 11 0
BBX 10 13 1 0
BITMAP
1F00
3F80
21C0
00C0
01C0
1F80
1F00
0380
0180
0180
8380
FF00
7C00
ENDCHAR
STARTCHAR afii10074
ENCODING 232
SWIDTH 625 0
DWIDTH 15 0
BBX 12 13 3 0
BITMAP
3030
3070
3070
6060
6060
60E0
61E0
61E0
C3C0
C7C0
CEC0
FCC0
71C0
ENDCHAR
STARTCHAR afii10075
ENCODING 233
SWIDTH 625 0
DWIDTH 15 0
BBX 12 17 3 0
BITMAP
0440
07C0
0380
0000
3030
3070
3070
6060
6060
60E0
61E0
61E0
C3C0
C7C0
CEC0
FCC0
71C0
ENDCHAR
STARTCHAR afii10076
ENCODING 234
SWIDTH 583 0
DWIDTH 14 0
BBX 12 13 3 0
BITMAP
1870
38E0
31C0
3380
3700
3E00
6C00
6E00
6700
6300
6180
E1C0
C0E0
ENDCHAR
STARTCHAR afii10077
ENCODING 235
SWIDTH 625 0
DWIDTH 15 0
BBX 14 13 1 0
BITMAP
07FC
07FC
061C
0618
0618
0E18
0C38
0C30
0C30
1830
1830
F070
E060
ENDCHAR
STARTCHAR afii10078
ENCODING 236
SWIDTH 708 0
DWIDTH 17 0
BBX 15 13 2 0
BITMAP
381E
3C1E
3C3E
3C3C
3C6C
6E6C
6ECC
66DC
6798
6798
6718
C018
C038
ENDCHAR
STARTCHAR afii10079
ENCODING 237
SWIDTH 625 0
DWIDTH 15 0
BBX 13 13 2 0
BITMAP
1818
3838
3030
3030
3030
3FF0
7FF0
6060
6060
6060
6060
E0E0
C0C0
ENDCHAR
STARTCHAR afii10080
ENCODING 238
SWIDTH 583 0
DWIDTH 14 0
BBX 12 13 2 0
BITMAP
07C0
1FE0
3870
3070
6070
6070
E070
C060
C0E0
E0C0
E380
7F00
3E00
ENDCHAR
STARTCHAR afii10081
ENCODING 239
SWIDTH 625 0
DWIDTH 15 0
BBX 12 13 2 0
BITMAP
38E0
33F0
3730
3E30
3C70
7C70
7860
7060
6060
60E0
E0E0
E0C0
C0C0
ENDCHAR
STARTCHAR afii10082
ENCODING 240
SWIDTH 625 0
DWIDTH 15 0
BBX 14 18 1 -5
BITMAP
1C78
1CFC
1B9C
1F1C
1E1C
3E1C
3C18
3838
3030
3070
71E0
7F80
7F00
6000
6000
E000
E000
C000
ENDCHAR
STARTCHAR afii10083
ENCODING 241
SWIDTH 500 0
DWIDTH 12 0
BBX 11 13 2 0
BITMAP
07E0
0FE0
1C20
3000
7000
6000
E000
C000
C000
E000
E080
7F80
3E00
ENDCHAR
STARTCHAR afii10084
ENCODING 242
SWIDTH 916 0
DWIDTH 22 0
BBX 20 13 2 0
BITMAP
18F0E0
39F3F0
373770
363E70
3C7C70
3C7860
787860
707060
606060
6060E0
60E0C0
C0C0C0
C0C0C0
ENDCHAR
STARTCHAR afii10085
ENCODING 243
SWIDTH 541 0
DWIDTH 13 0
BBX 13 18 2 -5
BITMAP
6038
6030
7070
7060
30C0
31C0
3180
3380
3B00
3E00
3E00
1C00
1C00
1800
3000
3000
6000
E000
ENDCHAR
STARTCHAR afii10086
ENCODING 244
SWIDTH 875 0
DWIDTH 21 0
BBX 19 22 2 -5
BITMAP
001800
003800
003000
003000
073380
1FF7C0
38F8E0
30F8E0
7070E0
6060E0
E0E0E0
E0E0C0
E0C1C0
E1E180
E3E380
7EFF00
3DDC00
018000
018000
018000
038000
030000
ENDCHAR
STARTCHAR afii10087
ENCODING 245
SWIDTH 541 0
DWIDTH 13 0
BBX 14 13 1 0
BITMAP
1C1C
0C38
0E70
0660
07C0
0380
0380
0780
0DC0
18C0
38E0
7060
E070
ENDCHAR
STARTCHAR afii10088
ENCODING 246
SWIDTH 625 0
DWIDTH 15 0
BBX 12 16 3 -3
BITMAP
3030
3070
3070
6060
6060
60E0
61E0
61E0
C3C0
C7C0
CEC0
FCF0
71F0
0060
00E0
00C0
ENDCHAR
STARTCHAR afii10089
ENCODING 247
SWIDTH 583 0
DWIDTH 14 0
BBX 11 13 3 0
BITMAP
6060
60E0
60E0
C1C0
C3C0
C7C0
CFC0
FDC0
7180
0180
0180
0380
0380
ENDCHAR
STARTCHAR afii10090
ENCODING 248
SWIDTH 916 0
DWIDTH 22 0
BBX 20 13 2 0
BITMAP
303030
303030
307060
706060
606060
60E0E0
61E1E0
61E3C0
C3E3C0
C7C6C0
CECEC0
FCF9C0
70F180
ENDCHAR
STARTCHAR afii10091
ENCODING 249
SWIDTH 916 0
DWIDTH 22 0
BBX 20 16 2 -3
BITMAP
303030
303030
307060
706060
606060
60E0E0
61E1E0
61E3C0
C3E3C0
C7C6C0
CECEC0
FCF9F0
70F1F0
000060
0000E0
0000C0
ENDCHAR
STARTCHAR afii10092
ENCODING 250
SWIDTH 583 0
DWIDTH 14 0
BBX 11 13 3 0
BITMAP
F800
F800
1800
3B80
37C0
3C60
3860
3060
70C0
60C0
6380
7F00
3C00
ENDCHAR
STARTCHAR afii10093
ENCODING 251
SWIDTH 791 0
DWIDTH 19 0
BBX 16 13 3 0
BITMAP
3003
3007
3006
7706
6F86
78C6
70CE
60CC
E18C
C18C
C70C
FE1C
7818
ENDCHAR
STARTCHAR afii10094
ENCODING 252
SWIDTH 541 0
DWIDTH 13 0
BBX 10 13 3 0
BITMAP
3000
3000
3000
7700
6F80
78C0
70C0
60C0
E180
C180
C700
FE00
7800
ENDCHAR
STARTCHAR afii10095
ENCODING 253
SWIDTH 500 0
DWIDTH 12 0
BBX 11 13 1 0
BITMAP
0F80
3FC0
20E0
00E0
00E0
0FE0
0FE0
00C0
01C0
0180
8700
FE00
7C00
ENDCHAR
STARTCHAR afii10096
ENCODING 254
SWIDTH 916 0
DWIDTH 22 0
BBX 18 13 3 0
BITMAP
181F00
387F80
30E1C0
30C1C0
3181C0
3F81C0
7F81C0
630180
630380
638300
638E00
E1FC00
C0F800
ENDCHAR
STARTCHAR afii10097
ENCODING 255
SWIDTH 541 0
DWIDTH 13 0
BBX 12 13 1 0
BITMAP
07F0
1FF0
3860
3060
3060
1860
0FE0
0FC0
1CC0
38C0
70C0
E1C0
C180
ENDCHAR
STARTCHAR fl
ENCODING -1
SWIDTH 639 0
DWIDTH 15 0
BBX 15 24 2 -5
BITMAP
01FE
03FE
060E
0E0C
0C0C
0C0C
7F9C
7F9C
1818
1818
1818
3838
3838
3030
3030
3030
7070
7070
6060
6000
6000
E000
E000
C000
ENDCHAR
STARTCHAR Zcaron
ENCODING -1
SWIDTH 578 0
DWIDTH 14 0
BBX 16 21 0 0
BITMAP
018E
00D8
00F0
0000
0FFF
0FFF
000E
001C
0038
0070
00E0
01C0
03C0
0780
0700
0E00
1C00
3800
7000
FFF8
FFF8
ENDCHAR
STARTCHAR oe
ENCODING -1
SWIDTH 899 0
DWIDTH 22 0
BBX 20 13 2 0
BITMAP
07C3E0
0FE7E0
387C70
307860
607060
6071C0
E07F80
C07E00
C0E000
E0F020
E3F0E0
7F3FE0
3E1F00
ENDCHAR
STARTCHAR Ydieresis
ENCODING -1
SWIDTH 608 0
DWIDTH 15 0
BBX 14 20 4 0
BITMAP
0C60
0C60
0000
E01C
6038
7070
3060
38C0
39C0
1B80
1F00
0E00
0C00
0C00
0C00
1C00
1C00
1800
1800
3800
ENDCHAR
STARTCHAR dotlessi
ENCODING -1
SWIDTH 289 0
DWIDTH 7 0
BBX 5 13 2 0
BITMAP
18
38
30
30
30
30
70
60
60
60
60
E0
C0
ENDCHAR
STARTCHAR lslash
ENCODING -1
SWIDTH 289 0
DWIDTH 7 0
BBX 9 17 1 0
BITMAP
0600
0600
0600
0E00
0C80
0F80
0F00
1C00
7800
D800
9800
3800
3800
3000
3000
3000
7000
ENDCHAR
STARTCHAR Lslash
ENCODING -1
SWIDTH 545 0
DWIDTH 13 0
BBX 12 17 1 0
BITMAP
0600
0E00
0E00
0C00
0C80
0F00
1F00
1C00
7800
F800
9800
3800
3800
3000
3000
3FF0
7FF0
ENDCHAR
STARTCHAR fi
ENCODING -1
SWIDTH 639 0
DWIDTH 15 0
BBX 15 24 2 -5
BITMAP
01F0
03E0
0706
0E0E
0C00
0C00
7FFC
7FFC
181C
1818
1818
3818
3838
3038
3030
3030
7030
7070
6070
6000
6000
E000
E000
C000
ENDCHAR
STARTCHAR OE
ENCODING -1
SWIDTH 1005 0
DWIDTH 24 0
BBX 24 17 2 0
BITMAP
01FBFF
07FFFF
0F0F00
1C0700
380700
700700
700600
6007F8
E00FF8
E00E00
E00E00
E00C00
E01C00
F01C00
787C00
3FFFF8
0FDFF8
ENDCHAR
STARTCHAR caron
ENCODING -1
SWIDTH 568 0
DWIDTH 14 0
BBX 8 3 7 14
BITMAP
C7
6C
78
ENDCHAR
STARTCHAR ogonek
ENCODING -1
SWIDTH 566 0
DWIDTH 14 0
BBX 4 3 4 -4
BITMAP
60
C0
F0
ENDCHAR
STARTCHAR hungarumlaut
ENCODING -1
SWIDTH 566 0
DWIDTH 14 0
BBX 8 3 7 14
BITMAP
1B
2C
D8
ENDCHAR
STARTCHAR dotaccent
ENCODING -1
SWIDTH 566 0
DWIDTH 14 0
BBX 3 2 9 15
BITMAP
E0
E0
ENDCHAR
STARTCHAR breve
ENCODING -1
SWIDTH 566 0
DWIDTH 14 0
BBX 8 3 7 14
BITMAP
C3
C6
7C
ENDCHAR
STARTCHAR tilde
ENCODING -1
SWIDTH 566 0
DWIDTH 14 0
BBX 8 2 6 15
BITMAP
7B
DE
ENDCHAR
STARTCHAR circumflex
ENCODING -1
SWIDTH 566 0
DWIDTH 14 0
BBX 8 3 6 14
BITMAP
1E
36
E3
ENDCHAR
STARTCHAR scaron
ENCODING -1
SWIDTH 489 0
DWIDTH 12 0
BBX 12 17 2 0
BITMAP
0C70
06C0
0780
0000
0F80
1FC0
3840
3800
3800
1C00
0E00
0700
0300
0380
C380
FF00
7E00
ENDCHAR
STARTCHAR ring
ENCODING -1
SWIDTH 567 0
DWIDTH 14 0
BBX 4 4 9 15
BITMAP
60
90
90
60
ENDCHAR
STARTCHAR florin
ENCODING -1
SWIDTH 633 0
DWIDTH 15 0
BBX 11 21 5 -4
BITMAP
03E0
07E0
0E00
0C00
1C00
1800
1800
1800
FE00
FE00
3000
3000
3000
3000
7000
6000
6000
6000
6000
E000
C000
ENDCHAR
STARTCHAR fraction
ENCODING -1
SWIDTH 117 0
DWIDTH 3 0
BBX 18 17 -5 0
BITMAP
0001C0
000380
000700
000E00
001C00
001800
003000
006000
00C000
018000
030000
060000
0E0000
1C0000
380000
700000
E00000
ENDCHAR
STARTCHAR Scaron
ENCODING -1
SWIDTH 553 0
DWIDTH 13 0
BBX 13 21 2 0
BITMAP
0638
0360
03C0
0000
03F0
0FF8
1E08
1C00
1800
1C00
1E00
0F00
0780
01C0
00E0
0060
0060
00E0
C1E0
FFC0
7F00
ENDCHAR
STARTCHAR zcaron
ENCODING -1
SWIDTH 536 0
DWIDTH 13 0
BBX 13 17 2 0
BITMAP
0638
0360
03C0
0000
1FF0
3FF0
00E0
01C0
0380
0700
0700
0E00
1C00
3800
7000
FFE0
FFC0
ENDCHAR
ENDFONT
